<?xml version="1.0" encoding="UTF-8"?>
<svg width="1200pt" height="1200pt" version="1.1" viewBox="0 0 1200 1200" xmlns="http://www.w3.org/2000/svg">
 <g fill="#fff">
  <path d="m943.45 1073.7h-686.9c-52.07 0-94.441-42.363-94.441-94.422v-758.59c0-52.07 42.371-94.43 94.441-94.43h686.91c52.07 0 94.441 42.352 94.441 94.43v758.59c-0.011719 52.059-42.383 94.422-94.453 94.422zm-686.9-933.33c-44.289 0-80.328 36.031-80.328 80.32v758.59c0 44.281 36.039 80.312 80.328 80.312h686.91c44.289 0 80.328-36.031 80.328-80.312v-758.59c0-44.289-36.039-80.32-80.328-80.32z"/>
  <path d="m473.46 1006.7c-3.8945 0-7.0547-3.1602-7.0547-7.0547v-784.42c0-3.8945 3.1602-7.0547 7.0547-7.0547 3.8945 0 7.0547 3.1602 7.0547 7.0547v784.42c0 3.8945-3.1602 7.0586-7.0547 7.0586z"/>
  <path d="m740.42 1006.7c-3.8945 0-7.0547-3.1602-7.0547-7.0547v-784.42c0-3.8945 3.1602-7.0547 7.0547-7.0547s7.0547 3.1602 7.0547 7.0547v784.42c0.003906 3.8945-3.1602 7.0586-7.0547 7.0586z"/>
  <path d="m653.02 579.81h-90.781c-19.953 0-36.191-16.238-36.191-36.199v-61.59c0-19.961 16.238-36.199 36.191-36.199h90.781c19.961 0 36.199 16.238 36.199 36.199v61.59c0 19.961-16.238 36.199-36.199 36.199zm-90.781-119.87c-12.172 0-22.078 9.9062-22.078 22.09v61.59c0 12.184 9.9062 22.09 22.078 22.09h90.781c12.184 0 22.09-9.9062 22.09-22.09v-61.59c0-12.184-9.9062-22.09-22.09-22.09z"/>
  <path d="m653.02 767.75h-90.781c-19.953 0-36.191-16.238-36.191-36.199v-61.609c0-19.945 16.238-36.18 36.191-36.18h90.781c19.961 0 36.199 16.238 36.199 36.18v61.609c0 19.969-16.238 36.199-36.199 36.199zm-90.781-119.87c-12.172 0-22.078 9.9062-22.078 22.07v61.609c0 12.184 9.9062 22.09 22.078 22.09h90.781c12.184 0 22.09-9.9062 22.09-22.09v-61.609c0-12.164-9.9062-22.07-22.09-22.07z"/>
  <path d="m653.02 947.16h-90.781c-19.953 0-36.191-16.238-36.191-36.18v-61.609c0-19.945 16.238-36.18 36.191-36.18h90.781c19.961 0 36.199 16.238 36.199 36.18v61.609c0 19.941-16.238 36.18-36.199 36.18zm-90.781-119.86c-12.172 0-22.078 9.9062-22.078 22.07v61.609c0 12.164 9.9062 22.07 22.078 22.07h90.781c12.184 0 22.09-9.9062 22.09-22.07v-61.609c0-12.164-9.9062-22.07-22.09-22.07z"/>
  <path d="m382.55 579.81h-90.789c-19.953 0-36.191-16.238-36.191-36.199v-61.59c0-19.961 16.238-36.199 36.191-36.199h90.789c19.953 0 36.191 16.238 36.191 36.199v61.59c0 19.961-16.238 36.199-36.191 36.199zm-90.789-119.87c-12.172 0-22.078 9.9062-22.078 22.09v61.59c0 12.184 9.9062 22.09 22.078 22.09h90.789c12.172 0 22.078-9.9062 22.078-22.09v-61.59c0-12.184-9.9062-22.09-22.078-22.09z"/>
  <path d="m653.02 391.86h-90.781c-19.953 0-36.191-16.238-36.191-36.18v-61.602c0-19.945 16.238-36.18 36.191-36.18h90.781c19.961 0 36.199 16.238 36.199 36.18v61.609c0 19.945-16.238 36.172-36.199 36.172zm-90.781-119.85c-12.172 0-22.078 9.9062-22.078 22.07v61.609c0 12.164 9.9062 22.07 22.078 22.07h90.781c12.184 0 22.09-9.9062 22.09-22.07v-61.613c0-12.164-9.9062-22.07-22.09-22.07z"/>
  <path d="m382.55 391.86h-90.789c-19.953 0-36.191-16.238-36.191-36.18v-61.602c0-19.945 16.238-36.18 36.191-36.18h90.789c19.953 0 36.191 16.238 36.191 36.18v61.609c0 19.945-16.238 36.172-36.191 36.172zm-90.789-119.85c-12.172 0-22.078 9.9062-22.078 22.07v61.609c0 12.164 9.9062 22.07 22.078 22.07h90.789c12.172 0 22.078-9.9062 22.078-22.07l0.003906-61.613c0-12.164-9.9062-22.07-22.078-22.07z"/>
  <path d="m382.55 767.75h-90.789c-19.953 0-36.191-16.238-36.191-36.199v-61.609c0-19.945 16.238-36.18 36.191-36.18h90.789c19.953 0 36.191 16.238 36.191 36.18v61.609c0 19.969-16.238 36.199-36.191 36.199zm-90.789-119.87c-12.172 0-22.078 9.9062-22.078 22.07v61.609c0 12.184 9.9062 22.09 22.078 22.09h90.789c12.172 0 22.078-9.9062 22.078-22.09v-61.609c0-12.164-9.9062-22.07-22.078-22.07z"/>
  <path d="m913.33 947.16h-90.789c-19.953 0-36.191-16.238-36.191-36.18v-61.609c0-19.945 16.238-36.18 36.191-36.18h90.789c19.953 0 36.191 16.238 36.191 36.18v61.609c0 19.941-16.238 36.18-36.191 36.18zm-90.793-119.86c-12.172 0-22.078 9.9062-22.078 22.07v61.609c0 12.164 9.9062 22.07 22.078 22.07h90.789c12.172 0 22.078-9.9062 22.078-22.07v-61.609c0-12.164-9.9062-22.07-22.078-22.07z"/>
 </g>
</svg>
