<?xml version="1.0" encoding="UTF-8"?>
<svg width="1200pt" height="1200pt" version="1.1" viewBox="0 0 1200 1200" xmlns="http://www.w3.org/2000/svg">
 <g fill="#fff">
  <path d="m1175.4 567.14h-686.86v-57.551h686.86v-58.332h-686.86v-58.34h686.86v-58.332h-686.86v-58.348h686.86v-58.332h-686.86v-0.1875h-473.98v407.75h1160.8zm-767.81-291.14 4.9883 15.348h16.141l-13.055 9.4844 4.9883 15.348-13.055-9.4844-13.055 9.4844 4.9883-15.348-13.055-9.4844h16.137zm13.059 121.59-13.055-9.4844-13.055 9.4844 4.9883-15.348-13.055-9.4844h16.137l4.9883-15.348 4.9883 15.348h16.141l-13.055 9.4844zm0 81.07-13.055-9.4844-13.055 9.4844 4.9883-15.348-13.055-9.4844h16.137l4.9883-15.348 4.9883 15.348h16.141l-13.055 9.4844zm-39.008 40.707-13.055-9.4844-13.055 9.4844 4.9883-15.348-13.055-9.4844h16.137l4.9883-15.348 4.9883 15.348h16.137l-13.055 9.4844zm-39.012-40.707-13.055-9.4844-13.055 9.4844 4.9883-15.348-13.055-9.4844h16.137l4.9883-15.348 4.9883 15.348h16.137l-13.055 9.4844zm-39.008 40.707-13.055-9.4844-13.055 9.4844 4.9883-15.348-13.055-9.4844h16.137l4.9883-15.348 4.9883 15.348h16.137l-13.055 9.4844zm-39.012-40.707-13.055-9.4844-13.055 9.4844 4.9883-15.348-13.055-9.4844h16.137l4.9883-15.348 4.9883 15.348h16.141l-13.055 9.4844zm-39.012 40.707-13.055-9.4844-13.055 9.4844 4.9883-15.348-13.055-9.4844h16.137l4.9883-15.348 4.9883 15.348h16.137l-13.055 9.4844zm-39.008-40.707-13.055-9.4844-13.055 9.4844 4.9883-15.348-13.055-9.4844h16.137l4.9883-15.348 4.9883 15.348h16.137l-13.055 9.4844zm-39.008 40.707-13.055-9.4844-13.055 9.4844 4.9883-15.348-13.055-9.4844h16.137l4.9883-15.348 4.9883 15.348h16.137l-13.055 9.4844zm-39.012-40.707-13.055-9.4844-13.055 9.4844 4.9883-15.348-13.055-9.4844h16.137l4.9883-15.348 4.9883 15.348h16.141l-13.055 9.4844zm-34.18-105.91h16.137l4.9883-15.348 4.9883 15.348h16.141l-13.055 9.4844 4.9883 15.348-13.055-9.4844-13.055 9.4844 4.9883-15.348zm307.25-15.871-13.055-9.4844-13.055 9.4844 4.9883-15.348-13.055-9.4844h16.137l4.9883-15.348 4.9883 15.348h16.137l-13.055 9.4844zm0 81.074-13.055-9.4844-13.055 9.4844 4.9883-15.348-13.055-9.4883h16.137l4.9883-15.348 4.9883 15.348h16.137l-13.055 9.4883zm-30.941-65.203-13.055 9.4844 4.9883 15.348-13.055-9.4844-13.055 9.4844 4.9883-15.348-13.055-9.4844h16.137l4.9883-15.348 4.9883 15.348zm-47.078 65.203-13.055-9.4844-13.055 9.4844 4.9883-15.348-13.055-9.4883h16.137l4.9883-15.348 4.9883 15.348h16.137l-13.055 9.4883zm-4.9883-96.422 4.9883 15.348-13.055-9.4844-13.055 9.4844 4.9883-15.348-13.055-9.4844h16.137l4.9883-15.348 4.9883 15.348h16.137zm-25.953 31.219-13.055 9.4844 4.9883 15.348-13.055-9.4844-13.055 9.4844 4.9883-15.348-13.055-9.4844h16.137l4.9883-15.348 4.9883 15.348zm-47.082 65.203-13.055-9.4844-13.055 9.4844 4.9883-15.348-13.055-9.4883h16.137l4.9883-15.348 4.9883 15.348h16.137l-13.055 9.4883zm-4.9844-96.422 4.9883 15.348-13.055-9.4844-13.055 9.4844 4.9883-15.348-13.055-9.4844h16.137l4.9883-15.348 4.9883 15.348h16.137zm-25.953 31.219-13.055 9.4844 4.9883 15.348-13.055-9.4844-13.055 9.4844 4.9883-15.348-13.055-9.4844h16.137l4.9883-15.348 4.9883 15.348zm-47.078 65.203-13.055-9.4844-13.055 9.4844 4.9883-15.348-13.055-9.4883h16.137l4.9883-15.348 4.9883 15.348h16.137l-13.062 9.4883zm-4.9883-96.422 4.9883 15.348-13.055-9.4844-13.055 9.4844 4.9883-15.348-13.055-9.4844h16.137l4.9883-15.348 4.9883 15.348h16.137zm221-90.895 4.9883-15.348 4.9883 15.348h16.137l-13.055 9.4844 4.9883 15.348-13.055-9.4844-13.055 9.4844 4.9883-15.348-13.055-9.4844zm-34.027 25.359 4.9883 15.348h16.137l-13.055 9.4844 4.9883 15.348-13.055-9.4844-13.055 9.4844 4.9883-15.348-13.055-9.4844h16.137zm-43.992-25.359 4.9883-15.348 4.9883 15.348h16.137l-13.055 9.4844 4.9883 15.348-13.055-9.4844-13.055 9.4844 4.9883-15.348-13.055-9.4844zm-34.027 25.359 4.9883 15.348h16.141l-13.055 9.4844 4.9883 15.348-13.055-9.4844-13.055 9.4844 4.9883-15.348-13.055-9.4844h16.137zm-43.992-25.359 4.9883-15.348 4.9883 15.348h16.137l-13.055 9.4844 4.9883 15.348-13.055-9.4844-13.055 9.4844 4.9883-15.348-13.055-9.4844zm-34.027 25.359 4.9883 15.348h16.137l-13.055 9.4844 4.9883 15.348-13.055-9.4844-13.055 9.4844 4.9883-15.348-13.055-9.4844h16.137zm-43.992-25.359 4.9883-15.348 4.9883 15.348h16.137l-13.059 9.4883 4.9883 15.348-13.055-9.4844-13.055 9.4844 4.9883-15.348-13.055-9.4844zm-34.023 25.359 4.9883 15.348h16.141l-13.055 9.4844 4.9883 15.348-13.055-9.4844-13.055 9.4844 4.9883-15.348-13.055-9.4844h16.137zm-43.996-25.359 4.9883-15.348 4.9883 15.348h16.137l-13.055 9.4844 4.9883 15.348-13.055-9.4844-13.055 9.4844 4.9883-15.348-13.055-9.4844zm0 81.41 4.9883-15.348 4.9883 15.348h16.137l-13.055 9.4844 4.9883 15.348-13.055-9.4844-13.055 9.4844 4.9883-15.348-13.055-9.4844zm0 81.07 4.9883-15.348 4.9883 15.348h16.137l-13.055 9.4883 4.9883 15.348-13.055-9.4844-13.055 9.4844 4.9883-15.348-13.055-9.4883zm0 81.414 4.9883-15.348 4.9883 15.348h16.137l-13.055 9.4844 4.9883 15.348-13.055-9.4844-13.055 9.4844 4.9883-15.348-13.055-9.4844zm18.043 113.37-13.055-9.4844-13.055 9.4844 4.9883-15.348-13.055-9.4844h16.137l4.9883-15.348 4.9883 15.348h16.137l-13.055 9.4844zm25.953-50.531-13.055 9.4883 4.9883-15.348-13.055-9.4844h16.137l4.9883-15.348 4.9883 15.348h16.141l-13.055 9.4844 4.9883 15.348zm52.066 50.531-13.055-9.4844-13.055 9.4844 4.9883-15.348-13.055-9.4844h16.137l4.9883-15.348 4.9883 15.348h16.137l-13.055 9.4844zm25.949-50.531-13.055 9.4883 4.9883-15.348-13.055-9.4844h16.137l4.9883-15.348 4.9883 15.348h16.137l-13.055 9.4844 4.9883 15.348zm52.066 50.531-13.055-9.4844-13.055 9.4844 4.9883-15.348-13.055-9.4844h16.137l4.9883-15.348 4.9883 15.348h16.137l-13.055 9.4844zm25.953-50.531-13.055 9.4883 4.9883-15.348-13.055-9.4844h16.137l4.9883-15.348 4.9883 15.348h16.141l-13.055 9.4844 4.9883 15.348zm52.07 50.531-13.055-9.4844-13.055 9.4844 4.9883-15.348-13.055-9.4844h16.137l4.9883-15.348 4.9883 15.348h16.137l-13.055 9.4844zm25.949-50.531-13.055 9.4883 4.9883-15.348-13.055-9.4844h16.137l4.9883-15.348 4.9883 15.348h16.137l-13.055 9.4844 4.9883 15.348zm52.07 50.531-13.055-9.4844-13.055 9.4844 4.9883-15.348-13.055-9.4844h16.137l4.9883-15.348 4.9883 15.348h16.137l-13.055 9.4844zm25.949-50.531-13.055 9.4883 4.9883-15.348-13.055-9.4844h16.137l4.9883-15.348 4.9883 15.348h16.141l-13.055 9.4844 4.9883 15.348zm52.07 50.531-13.055-9.4844-13.055 9.4844 4.9883-15.348-13.055-9.4844h16.137l4.9883-15.348 4.9883 15.348h16.137l-13.051 9.4844zm-4.9883-103.88 4.9883 15.348-13.055-9.4844-13.055 9.4844 4.9883-15.348-13.055-9.4844h16.137l4.9883-15.348 4.9883 15.348h16.137zm0-81.41 4.9883 15.348-13.055-9.4844-13.055 9.4844 4.9883-15.348-13.055-9.4883h16.137l4.9883-15.348 4.9883 15.348h16.137zm0-81.074 4.9883 15.348-13.055-9.4844-13.055 9.4844 4.9883-15.348-13.055-9.4844h16.137l4.9883-15.348 4.9883 15.348h16.137zm0-81.406 4.9883 15.348-13.055-9.4844-13.055 9.4844 4.9883-15.348-13.055-9.4844h16.137l4.9883-15.348 4.9883 15.348h16.137z"/>
  <path d="m14.535 684.47h1160.9v58.332h-1160.9z"/>
  <path d="m14.535 801.15h1160.9v58.332h-1160.9z"/>
  <path d="m14.535 917.82h1160.9v58.332h-1160.9z"/>
 </g>
</svg>
