<?xml version="1.0" encoding="UTF-8"?>
<svg width="1200pt" height="1200pt" version="1.1" viewBox="0 0 1200 1200" xmlns="http://www.w3.org/2000/svg">
 <g fill="#31ab8e">
  <path d="m178.9 205.3h289.5v26.301h-289.5z"/>
  <path d="m178.9 257.9h289.5v26.301h-289.5z"/>
  <path d="m310.5 389.5h447.4v26.301h-447.4z"/>
  <path d="m178.9 442.1h105.3v-105.3h-105.3zm26.301-78.898h52.602v52.602l-52.5-0.003907z"/>
  <path d="m178.9 600h105.3v-105.3h-105.3zm26.301-78.898h52.602v52.602l-52.5-0.003906z"/>
  <path d="m178.9 757.9h105.3v-105.3h-105.3zm26.301-78.898h52.602v52.602h-52.5z"/>
  <path d="m178.9 836.8h578.9v26.301h-578.9z"/>
  <path d="m178.9 915.8h368.4v26.301h-368.4z"/>
  <path d="m310.5 705.3h250.8v26.301h-250.8z"/>
  <path d="m757.9 705.3h-14.098l-26.301 26.301h40.398z"/>
  <path d="m715.6 547.4h-405.1v26.301h378.8z"/>
  <path d="m810.5 1073.7h-684.2v-947.4h684.2v326.2l26.301-26.301v-326.2h-736.8v1e3h736.8v-487.8l-26.301 26.402z"/>
  <path d="m1084.6 271.4c-9.8789-9.8438-23.258-15.371-37.203-15.371-13.945 0-27.32 5.5273-37.199 15.371l-409.4 409.4-26.301 26.301v74.398h74.398l26.301-26.301 148.9-148.8 260.5-260.5c9.8711-9.8789 15.418-23.277 15.418-37.25 0-13.969-5.5469-27.367-15.418-37.25zm-446.6 483.8h-37.199v-37.199l167.5-167.4 37.199 37.199zm428-428-241.9 242-37.203-37.199 241.9-242c6.6445-6.6445 16.328-9.2422 25.406-6.8086s16.168 9.5234 18.602 18.602-0.16406 18.762-6.8086 25.406z"/>
 </g>
</svg>
