<?xml version="1.0" encoding="UTF-8"?>
<svg width="1200pt" height="1200pt" version="1.1" viewBox="0 0 1200 1200" xmlns="http://www.w3.org/2000/svg">
 <g fill="#fff">
  <path d="m320.88 631.08c-76.812-20.691-157.73 12.906-197.44 82.16-39.773 69.238-28.332 156.45 27.906 212.97 26.121 26.266 39.934 54.934 46.48 86.039 5.5469 26.535 5.3203 56.254 5.3984 88.012h177.59v-55.625l70.199-56.961v-85.84l33.547-31.309-33.547-65.492v-3.6133c0.003907-79.93-53.395-149.73-130.13-170.34zm7.8398-29.25c89.945 24.172 152.51 106.19 152.51 199.6l40.625 75.559-40.625 37.922v87.078l-70.215 57.012v71.465h-237.08v-15.066c0-38.691-0.13281-70.281-5.6797-96.945-5.6406-26.602-16.055-48.48-38.348-70.828-65.762-66.121-79.16-168.48-32.641-249.45 46.469-80.906 141.6-120.57 231.45-96.344z" fill-rule="evenodd"/>
  <path d="m879.15 631.08c76.734-20.691 157.64 12.906 197.43 82.16 39.812 69.238 28.281 156.45-27.973 212.97-26.121 26.266-39.934 54.934-46.453 86.039-5.5586 26.535-5.2812 56.254-5.4141 88.012l-177.59 0.003906v-55.625l-70.133-56.961v-85.84l-33.547-31.309 33.547-65.492v-3.6133c-0.003906-79.934 53.332-149.73 130.13-170.35zm-7.9219-29.25c-89.867 24.172-152.45 106.19-152.45 199.6l-40.691 75.559 40.691 37.922v87.078l70.16 57.012v71.465h237.13v-15.066c0-38.691 0.14844-70.281 5.707-96.945 5.5469-26.602 15.973-48.48 38.266-70.828 65.762-66.121 79.172-168.48 32.707-249.45-46.52-80.906-141.6-120.57-231.52-96.344z" fill-rule="evenodd"/>
  <path d="m532.48 618.91h136.11v44.105l-32.988 28.465-1.2656 4.2539c-4.1602 14.215-17.973 23.535-32.574 24.375-14.641 0.89453-28.32-4.9453-35.266-25.055l-1.3867-3.8945-32.641-28.121v-44.129zm67.984-349.03c65.84 0 125.21 39.801 150.41 101.12 25.199 61.32 11.254 131.88-35.332 178.75l-38.762 38.961h-61.105v-106.45c6.4531-1.4531 12.762-3.7461 18.746-7.0938 20.973-11.879 34.172-34.094 34.172-58.121h-30.348c0 13.055-6.9453 25.215-18.68 31.812-11.734 6.668-26.32 6.668-38.105 0-11.734-6.6016-18.762-18.762-18.762-31.812h-30.215c0 24.027 13.121 46.238 34.094 58.121 5.9883 3.332 12.359 5.625 18.812 7.0938v106.45h-61.105l-38.746-38.961c-46.602-46.879-60.625-117.44-35.348-178.75 25.191-61.309 84.43-101.12 150.27-101.12zm0-30.133c-78.066 0-148.41 47.359-178.25 119.85-29.801 72.453-13.266 155.91 41.867 211.39l38.199 38.48v67.426l37.492 32.359c12.012 28.547 38.828 42.441 63.746 40.973 24.586-1.4531 48.414-16.387 57.922-41.105l37.348-32.227v-67.426l38.215-38.48c55.121-55.48 71.652-138.95 41.785-211.39-29.773-72.492-100.27-119.85-178.32-119.85z" fill-rule="evenodd"/>
  <path d="m576.77 69.828h30.281v111.04h-30.281z"/>
  <path d="m831.77 162.8-78.535 78.547 21.32 21.398 78.535-78.48z"/>
  <path d="m330.61 184.29 21.398-21.465 78.629 78.387-21.398 21.465z"/>
  <path d="m237.61 408.99h110.97v30.215h-110.97z"/>
  <path d="m835.25 408.99h110.96v30.215h-110.96z"/>
 </g>
</svg>
