<?xml version="1.0" encoding="UTF-8"?>
<svg width="1200pt" height="1200pt" version="1.1" viewBox="0 0 1200 1200" xmlns="http://www.w3.org/2000/svg">
 <path d="m282 318c0-36.453 29.547-66 66-66s66 29.547 66 66-29.547 66-66 66-66-29.547-66-66zm66-78c-43.078 0-78 34.922-78 78 0 29.82 16.734 55.734 41.324 68.855l-63.641 145.47c-8.0508-2.8047-16.695-4.3281-25.684-4.3281-43.078 0-78 34.922-78 78s34.922 78 78 78c8.9883 0 17.633-1.5234 25.684-4.3281l63.641 145.47c-24.59 13.121-41.324 39.035-41.324 68.855 0 43.078 34.922 78 78 78s78-34.922 78-78c0-9.4492-1.6797-18.504-4.7578-26.887l83.48-38.16 29.773 22.684c-7.9062 12.199-12.496 26.742-12.496 42.363 0 43.078 34.922 78 78 78s78-34.922 78-78c0-15.621-4.5898-30.164-12.496-42.363l29.773-22.684 83.48 38.16c-3.0781 8.3828-4.7578 17.438-4.7578 26.887 0 43.078 34.922 78 78 78s78-34.922 78-78c0-29.82-16.734-55.734-41.324-68.855l63.641-145.47c8.043 2.8047 16.688 4.3281 25.684 4.3281 43.078 0 78-34.922 78-78s-34.922-78-78-78c-8.9961 0-17.641 1.5234-25.684 4.3281l-63.641-145.47c24.59-13.121 41.324-39.035 41.324-68.855 0-43.078-34.922-78-78-78s-78 34.922-78 78c0 9.4492 1.6797 18.504 4.7578 26.887l-83.48 38.16-29.773-22.684c7.9062-12.199 12.496-26.742 12.496-42.363 0-43.078-34.922-78-78-78s-78 34.922-78 78c0 15.621 4.5898 30.164 12.496 42.363l-29.773 22.684-83.48-38.16c3.0781-8.3828 4.7578-17.438 4.7578-26.887 0-43.078-34.922-78-78-78zm529.68 580.33 63.641-145.47c-8.1523-4.3516-15.445-10.109-21.547-16.949l-123.39 94.008 29.93 68.414c8.043-2.8047 16.688-4.3281 25.684-4.3281s17.641 1.5234 25.684 4.3281zm-62.359 4.8164-28.762-65.746-50.664 38.602 57.879 44.094c6.1016-6.8398 13.395-12.598 21.547-16.949zm-28.828 26.492-60.496-46.094-19.902 15.164 77.656 35.496c0.86328-1.5547 1.7773-3.0781 2.7422-4.5664zm-223.17-26.492c-8.1523 4.3516-15.445 10.109-21.547 16.949l-24.68-18.801 37.848-17.301zm36.676-9.1445c-8.9961 0-17.641 1.5234-25.684 4.3281l-8.4531-19.324 34.137-15.605 34.137 15.605-8.4531 19.324c-8.043-2.8047-16.688-4.3281-25.684-4.3281zm58.223 26.094c-6.1016-6.8398-13.395-12.598-21.547-16.949l8.3789-19.152 37.848 17.301zm-241.98 14.109 77.656-35.496-19.902-15.164-60.496 46.094c0.96484 1.4883 1.8789 3.0117 2.7422 4.5664zm-10.023-14.109 57.879-44.094-50.664-38.602-28.762 65.746c8.1523 4.3516 15.445 10.109 21.547 16.949zm-32.539-21.766 29.93-68.414-123.39-94.008c-6.0977 6.8359-13.391 12.598-21.547 16.949l63.641 145.47c8.043-2.8047 16.688-4.3281 25.684-4.3281s17.641 1.5234 25.684 4.3281zm536.07-176.53c0.86328 1.5547 1.7773 3.0781 2.7422 4.5664l-121.06 92.238-15.574-35.598zm-9.7539-37.797c0 9.4492 1.6797 18.504 4.7578 26.887l-133.7 61.121-8.3789-19.152c24.59-13.121 41.324-39.035 41.324-68.855s-16.734-55.734-41.324-68.855l8.3789-19.152 133.7 61.121c-3.0781 8.3828-4.7578 17.438-4.7578 26.887zm12.496-42.363c-0.96484 1.4883-1.8789 3.0117-2.7422 4.5664l-133.89-61.207 15.574-35.598zm28.828-26.492c-8.1523 4.3516-15.445 10.109-21.547 16.949l-123.39-94.008 29.93-68.414c8.043 2.8047 16.688 4.3281 25.684 4.3281s17.641-1.5234 25.684-4.3281zm-189.64-4.8164 8.4531-19.324-85.344-39.016 25.523 58.34c8.043-2.8047 16.688-4.3281 25.684-4.3281s17.641 1.5234 25.684 4.3281zm-62.359 4.8164-28.762-65.746-50.664 38.602 57.879 44.094c6.1016-6.8398 13.395-12.598 21.547-16.949zm-28.828 26.492-60.496-46.094-60.496 46.094c7.9062 12.199 12.496 26.742 12.496 42.363s-4.5898 30.164-12.496 42.363l60.496 46.094 60.496-46.094c-7.9062-12.199-12.496-26.742-12.496-42.363s4.5898-30.164 12.496-42.363zm7.2812 94.27-57.879 44.094 50.664 38.602 28.762-65.746c-8.1523-4.3516-15.445-10.109-21.547-16.949zm32.539 21.766-25.523 58.34 85.344-39.016-8.4531-19.324c-8.043 2.8047-16.688 4.3281-25.684 4.3281s-17.641-1.5234-25.684-4.3281zm-189.64-4.8164c8.1523-4.3516 15.445-10.109 21.547-16.949l57.879 44.094-50.664 38.602zm-36.676 9.1445c8.9961 0 17.641-1.5234 25.684-4.3281l25.523 58.34-85.344-39.016 8.4531-19.324c8.043 2.8047 16.688 4.3281 25.684 4.3281zm-78-78c0 29.82 16.734 55.734 41.324 68.855l-8.3789 19.152-133.7-61.121c3.0781-8.3906 4.7578-17.449 4.7578-26.887s-1.6797-18.496-4.7578-26.887l133.7-61.121 8.3789 19.152c-24.59 13.121-41.324 39.035-41.324 68.855zm78-78c-8.9961 0-17.641 1.5234-25.684 4.3281l-8.4531-19.324 85.344-39.016-25.523 58.34c-8.043-2.8047-16.688-4.3281-25.684-4.3281zm58.223 26.094c-6.1016-6.8398-13.395-12.598-21.547-16.949l28.762-65.746 50.664 38.602zm-115.98-198.3c-0.86328 1.5547-1.7773 3.0781-2.7422 4.5664l60.496 46.094 19.902-15.164zm-10.023 14.109c-6.1016 6.8398-13.395 12.598-21.547 16.949l28.762 65.746 50.664-38.602zm-32.539 21.766c-8.043 2.8047-16.688 4.3281-25.684 4.3281s-17.641-1.5234-25.684-4.3281l-63.641 145.47c8.1562 4.3516 15.449 10.113 21.547 16.949l123.39-94.008zm168.09-21.766-24.68 18.801 37.848 17.301 8.3789-19.152c-8.1523-4.3516-15.445-10.109-21.547-16.949zm32.539 21.766-8.4531 19.324 34.137 15.605 34.137-15.605-8.4531-19.324c-8.043 2.8047-16.688 4.3281-25.684 4.3281s-17.641-1.5234-25.684-4.3281zm62.359-4.8164 8.3789 19.152 37.848-17.301-24.68-18.801c-6.1016 6.8398-13.395 12.598-21.547 16.949zm147.08-31.059-77.656 35.496 19.902 15.164 60.496-46.094c-0.96484-1.4883-1.8789-3.0117-2.7422-4.5664zm10.023 14.109-57.879 44.094 50.664 38.602 28.762-65.746c-8.1523-4.3516-15.445-10.109-21.547-16.949zm-259.78-51.906c0-36.453 29.547-66 66-66s66 29.547 66 66-29.547 66-66 66-66-29.547-66-66zm318-66c-36.453 0-66 29.547-66 66s29.547 66 66 66 66-29.547 66-66-29.547-66-66-66zm-368.1 162 22.379-17.047 43.859 20.051-15.574 35.598zm64.895 36.012 12.262-28.02 24.516 11.207zm-0.19531 13.281 51.402-23.496 51.402 23.496-51.402 39.164zm167.5-49.293-50.664 38.602-15.574-35.598 43.859-20.051zm-64.895 36.012-12.262-28.02-24.516 11.207zm23.391 10.695 51.402-39.164 55.613 42.371-16.668 38.094zm-200.6-39.164 51.402 39.164-90.348 41.301-16.668-38.094zm-65.438 49.855 15.574 35.598-133.89 61.207c-0.86328-1.5547-1.7773-3.0781-2.7422-4.5664zm0 269.2-121.06-92.238c0.96484-1.4883 1.8789-3.0117 2.7422-4.5664l133.89 61.207zm9.8242 7.4844 16.668-38.094 90.348 41.301-51.402 39.164zm65.512 49.914 50.664-38.602 15.574 35.598-43.859 20.051zm101.67-19.199-24.516 11.207-12.262-28.02zm14.43-6.5977-51.402-23.496 51.402-39.164 51.402 39.164zm14.43 6.5977 36.777-16.812-12.262 28.02zm79.293 36.246-43.859-20.051 15.574-35.598 50.664 38.602zm32.277-24.59-51.402-39.164 90.348-41.301 16.668 38.094zm-570-184.46c0-36.453 29.547-66 66-66 9.4219 0 18.367 1.9688 26.457 5.5156 10.328 4.5234 19.285 11.621 26.047 20.488 2.957 3.8711 5.4883 8.0781 7.5391 12.551 3.8242 8.3516 5.957 17.641 5.957 27.445s-2.1328 19.094-5.957 27.445c-2.0508 4.4727-4.582 8.6797-7.5391 12.551-6.7617 8.8672-15.719 15.965-26.047 20.488-8.0898 3.5469-17.035 5.5156-26.457 5.5156-36.453 0-66-29.547-66-66zm318-66c-36.453 0-66 29.547-66 66s29.547 66 66 66 66-29.547 66-66-29.547-66-66-66zm186 66c0-36.453 29.547-66 66-66s66 29.547 66 66-29.547 66-66 66-66-29.547-66-66zm318-66c-36.453 0-66 29.547-66 66s29.547 66 66 66 66-29.547 66-66-29.547-66-66-66zm-696 354c0-36.453 29.547-66 66-66s66 29.547 66 66-29.547 66-66 66-66-29.547-66-66zm318-66c-36.453 0-66 29.547-66 66s29.547 66 66 66 66-29.547 66-66-29.547-66-66-66zm186 66c0-36.453 29.547-66 66-66s66 29.547 66 66-29.547 66-66 66-66-29.547-66-66z" fill="#fff" fill-rule="evenodd"/>
</svg>
