<?xml version="1.0" encoding="UTF-8"?>
<svg width="1200pt" height="1200pt" version="1.1" viewBox="0 0 1200 1200" xmlns="http://www.w3.org/2000/svg">
 <g fill="#fff">
  <path d="m70.078 476.88c-12.133 12.133-16.871 29.816-12.43 46.391 4.4414 16.574 17.387 29.52 33.961 33.961 16.574 4.4414 34.258-0.29688 46.391-12.43 122.64-122.32 288.79-191.01 462-191.01s339.36 68.691 462 191.01c12.133 12.133 29.816 16.871 46.391 12.43 16.574-4.4414 29.52-17.387 33.961-33.961 4.4414-16.574-0.29687-34.258-12.43-46.391-140.65-140.34-331.23-219.16-529.92-219.16s-389.27 78.816-529.92 219.16z"/>
  <path d="m968.04 686.76c12.738 0.007812 24.957-5.0469 33.969-14.051 9.0078-9.0039 14.07-21.219 14.07-33.957 0-12.738-5.0664-24.953-14.078-33.953-106.68-106.49-251.26-166.3-402-166.3s-295.32 59.809-402 166.3c-12.133 12.133-16.871 29.816-12.43 46.391 4.4414 16.574 17.387 29.52 33.961 33.957 16.57 4.4414 34.258-0.29688 46.391-12.43 88.676-88.461 208.82-138.14 334.08-138.14s245.4 49.68 334.08 138.14c9.0117 9 21.227 14.051 33.961 14.043z"/>
  <path d="m840 814.8c12.738 0.007813 24.957-5.043 33.969-14.047 9.0078-9.0039 14.07-21.223 14.07-33.961-0.003906-12.734-5.0664-24.949-14.078-33.953-72.711-72.559-171.24-113.31-273.96-113.31s-201.25 40.754-273.96 113.31c-12.133 12.133-16.871 29.816-12.43 46.391s17.387 29.52 33.961 33.961c16.574 4.4414 34.258-0.29688 46.391-12.43 54.688-54.566 128.79-85.207 206.04-85.207s151.35 30.641 206.04 85.207c9.0117 8.9961 21.227 14.047 33.961 14.039z"/>
  <path d="m486 860.76c-12.133 12.133-16.871 29.816-12.43 46.387 4.4414 16.574 17.387 29.52 33.961 33.961 16.57 4.4414 34.258-0.29688 46.391-12.43 12.199-12.215 28.754-19.078 46.02-19.078 17.262 0 33.82 6.8633 46.02 19.078 12.133 12.133 29.816 16.871 46.391 12.43 16.574-4.4414 29.52-17.387 33.957-33.961 4.4414-16.57-0.29688-34.254-12.43-46.387-30.227-30.25-71.234-47.246-114-47.246-42.762 0-83.773 16.996-114 47.246z"/>
 </g>
</svg>
