<?xml version="1.0" encoding="UTF-8"?>
<svg width="1200pt" height="1200pt" version="1.1" viewBox="0 0 1200 1200" xmlns="http://www.w3.org/2000/svg">
 <g fill="#fff">
  <path d="m920.25 1006.5c23.25 0 45-9 60.75-25.5 16.5-16.5 25.5-38.25 25.5-60.75 0-6-5.25-11.25-11.25-11.25s-11.25 5.25-11.25 11.25c0 17.25-6.75 33-18.75 45s-27.75 18.75-45 18.75c-6 0-11.25 5.25-11.25 11.25s5.25 11.25 11.25 11.25z"/>
  <path d="m1051.5 909c-6 0-11.25 5.25-11.25 11.25 0 32.25-12.75 62.25-35.25 84.75s-52.5 35.25-84.75 35.25c-6 0-11.25 5.25-11.25 11.25s5.25 11.25 11.25 11.25c38.25 0 73.5-15 100.5-42s42-63 42-100.5c0-6-5.25-11.25-11.25-11.25z"/>
  <path d="m891.75 907.5c-5.25 11.25-3 25.5 6.75 34.5 6 6 14.25 9 21.75 9 8.25 0 15.75-3 21.75-9 12-12 12-32.25 0-44.25-9.75-9.75-23.25-11.25-34.5-6.75l-25.5-25.5-15.75 15.75zm22.5 6.75c1.5-1.5 3.75-2.25 6-2.25s4.5 0.75 6 2.25c3.75 3.75 3.75 9 0 12-3.75 3.75-9 3.75-12 0-3.75-3-3.75-9 0-12z"/>
  <path d="m477 489c-4.5-4.5-11.25-4.5-15.75 0s-4.5 11.25 0 15.75l48.75 48.75c2.25 2.25 5.25 3 8.25 3s6-0.75 8.25-3c4.5-4.5 4.5-11.25 0-15.75z"/>
  <path d="m646.5 711c4.5 4.5 10.5 6.75 17.25 6.75s12.75-2.25 17.25-6.75l29.25-29.25c9.75-9.75 9.75-24.75 0-34.5l-53.25-53.25c-9-9-24.75-9-34.5 0l-30 29.25c-9.75 9.75-9.75 24.75 0 34.5zm-37.5-72 29.25-29.25c0.75-0.75 0.75-0.75 1.5-0.75 0 0 0.75 0 1.5 0.75l53.25 53.25c0.75 0.75 0.75 1.5 0 2.25l-29.25 29.25c-0.75 0.75-1.5 0.75-2.25 0l-53.25-53.25c-1.5 0-1.5-1.5-0.75-2.25z"/>
  <path d="m1112.2 222-134.25-134.25c-4.5-4.5-11.25-4.5-15.75 0l-320.25 320.25c-4.5 4.5-4.5 11.25 0 15.75l59.25 59.25-22.5 22.5-109.5-108c-47.25-47.25-124.5-47.25-171.75 0-36 36-45 90-25.5 134.25 0 0.75 0 0.75 0.75 0.75 6 13.5 14.25 25.5 24.75 36l108.75 108.75-22.5 22.5-59.25-59.25c-4.5-4.5-11.25-4.5-15.75 0l-159.75 159.75-54 54.75-106.5 106.5c-4.5 4.5-4.5 11.25 0 15.75l134.25 134.25c2.25 2.25 5.25 3 8.25 3s6-0.75 8.25-3l53.25-53.25 52.5-53.25 213-213c4.5-4.5 4.5-11.25 0-15.75l-59.25-59.25 22.5-22.5 109.5 108c2.25 2.25 5.25 3 8.25 3s6-1.5 8.25-3l69.75-69.75 27 27c-21.75 25.5-33.75 57-33.75 90.75 0 37.5 14.25 72.75 41.25 99 2.25 2.25 5.25 3 8.25 3s6-0.75 8.25-3l181.5-181.5c4.5-4.5 4.5-11.25 0-15.75-26.25-26.25-61.5-41.25-99-41.25-33.75 0-65.25 12-90.75 33.75l-27-27 69.75-69.75c4.5-4.5 4.5-11.25 0-15.75l-108.75-110.25 22.5-22.5 59.25 59.25c2.25 2.25 5.25 3 8.25 3s6-0.75 8.25-3l159.75-159.75 53.25-54 106.5-106.5c5.25-4.5 5.25-12 0.75-16.5zm-855.75 603 118.5 118.5-37.5 37.5-60-58.5-59.25-59.25zm-26.25 263.25-118.5-118.5 37.5-37.5 118.5 118.5zm53.25-53.25-118.5-118.5 37.5-37.5 118.5 118.5zm107.25-107.25-118.5-118.5 37.5-37.5 118.5 118.5zm53.25-53.25-118.5-118.5 37.5-37.5 118.5 118.5zm53.25-53.25-118.5-118.5 37.5-37.5 118.5 118.5zm428.25-61.5-165 165c-17.25-21-27-47.25-27-75 0-31.5 12-60.75 34.5-83.25s51.75-34.5 83.25-34.5c27 1.5 53.25 10.5 74.25 27.75zm-512.25-346.5c19.5-19.5 45-29.25 69.75-29.25 8.25 0 15.75 0.75 24 3l-120 120c-8.25-32.25 0.75-68.25 26.25-93.75zm295.5 295.5-69.75 69.75-225.75-225.75c-6.75-6.75-12.75-15-17.25-23.25l134.25-134.25c8.25 4.5 15.75 10.5 23.25 17.25l225.75 225.75zm153.75-490.5 60 59.25 59.25 59.25-37.5 37.5-118.5-118.5zm-78.75 317.25-119.25-119.25 37.5-37.5 118.5 118.5zm53.25-54-118.5-118.5 37.5-37.5 118.5 118.5zm53.25-53.25-118.5-118.5 37.5-37.5 118.5 118.5zm107.25-107.25-118.5-118.5 37.5-37.5 118.5 118.5zm53.25-53.25-118.5-118.5 37.5-37.5 118.5 118.5z"/>
  <path d="m537.75 495.75-25.5-25.5 24.75-24.75c4.5-4.5 4.5-11.25 0-15.75s-11.25-4.5-15.75 0l-33 33c-4.5 4.5-4.5 11.25 0 15.75l33.75 33.75c2.25 2.25 5.25 3 8.25 3s6-0.75 8.25-3c3.75-5.25 3.75-12-0.75-16.5z"/>
  <path d="m535.5 563.25c-4.5 4.5-4.5 11.25 0 15.75l9 9c2.25 2.25 5.25 3 8.25 3s6-0.75 8.25-3c4.5-4.5 4.5-11.25 0-15.75l-9-9c-5.25-4.5-12-4.5-16.5 0z"/>
 </g>
</svg>
