<?xml version="1.0" encoding="UTF-8"?>
<svg width="1200pt" height="1200pt" version="1.1" viewBox="0 0 1200 1200" xmlns="http://www.w3.org/2000/svg">
 <g fill="#fff">
  <path d="m1029.8 260.4c-41.039 98.762-83.398 200.88-135.96 200.88-52.559 0-94.922-102.12-135.96-201-45.961-110.88-89.52-216-158.04-216-68.52 0-112.08 104.76-158.16 216-41.039 98.762-83.398 200.88-135.96 200.88-52.559 0-94.922-102.12-135.96-201-45.961-110.88-89.52-216-158.04-216v24c52.559 0 94.922 102.12 135.84 200.88 45.961 111 89.52 216 158.04 216s112.08-104.76 158.04-216c41.402-98.273 83.766-200.39 136.32-200.39s94.922 102.12 135.84 200.88c45.961 111 89.52 216 158.04 216 68.52 0 112.08-104.76 158.04-216 41.16-98.758 83.523-200.88 136.08-200.88v-24c-68.641 0-112.08 104.76-158.16 215.76z"/>
  <path d="m1162.3 1086.7c-12.719-30.602-24.719-60-48-60s-35.16 28.922-48 60c-6 14.52-18.48 44.641-25.68 44.641s-19.68-30.121-25.68-44.641c-12.719-30.602-24.719-60-48-60s-35.16 28.922-48 60c-6 14.52-18.48 44.641-25.68 44.641s-19.68-30.121-25.68-44.641c-12.719-30.602-24.719-60-48-60s-35.16 28.922-48 60c-6 14.52-18.48 44.641-25.68 44.641s-19.68-30.121-25.68-44.641c-12.719-30.602-24.719-60-48-60s-35.16 28.922-48 60c-6 14.52-18.48 44.641-25.68 44.641s-19.68-30.121-25.68-44.641c-12.719-30.602-24.719-60-48-60s-35.16 28.922-48 60c-6 14.52-18.48 44.641-25.68 44.641s-19.68-30.121-25.68-44.641c-12.719-30.602-24.719-60-48-60s-35.16 28.922-48 60c-6 14.52-18.48 44.641-25.68 44.641s-19.68-30.121-25.68-44.641c-12.719-30.602-24.719-60-48-60s-35.16 28.922-48 60c-6 14.52-18.48 44.641-25.68 44.641s-19.68-30.121-25.68-44.641c-12.719-30.602-24.719-60-48-60s-35.16 28.922-48 60c-3.125 14.52-15.605 44.641-22.805 44.641v24c23.16 0 35.16-28.922 48-60 6-14.52 18.48-44.641 25.68-44.641 7.1992 0 19.68 30.121 25.68 44.641 12.719 30.602 24.719 60 48 60s35.16-28.922 48-60c6-14.52 18.48-44.641 25.68-44.641 7.1992 0 19.68 30.121 25.68 44.641 12.719 30.602 24.719 60 48 60s35.16-28.922 48-60c5.2812-13.918 17.281-44.16 24.84-44.16s19.68 30.121 25.68 44.641c12.719 30.602 24.719 60 48 60s35.16-28.922 48-60c6-14.52 18.48-44.641 25.68-44.641s19.68 30.121 25.68 44.641c12.719 30.602 24.719 60 48 60s35.16-28.922 48-60c6-14.52 18.48-44.641 25.68-44.641 7.1992 0 19.68 30.121 25.68 44.641 12.719 30.602 24.719 60 48 60s35.16-28.922 48-60c6-14.52 18.48-44.641 25.68-44.641s19.68 30.121 25.68 44.641c12.719 30.602 24.719 60 48 60s35.16-28.922 48-60c4.6836-14.398 16.684-44.641 24.242-44.641s19.68 30.121 25.68 44.641c12.719 30.602 24.719 60 48 60s35.16-28.922 48-60c6-14.52 18.48-44.641 25.68-44.641s19.68 30.121 25.68 44.641c12.719 30.602 24.719 60 48 60v-24c-7.6758-0.48047-20.277-30.602-26.277-45.121z"/>
  <path d="m1101.1 751.68c-31.199-75.238-60.719-146.28-109.08-146.28s-77.879 71.039-109.08 146.28c-25.559 61.68-54.602 132-87 132-32.398 0-61.32-69.84-86.879-132-31.207-75.238-61.086-146.28-109.09-146.28s-77.879 71.039-109.08 146.28c-25.559 61.68-54.602 132-86.879 132-32.281 0-61.32-69.84-86.879-132-31.199-75.238-60.719-146.28-109.08-146.28-48.359 0-77.879 71.039-109.08 146.28-25.559 61.68-54.48 132-86.879 132v24c48 0 77.879-71.039 109.08-146.28 25.559-61.68 54.48-132 86.879-132 32.398 0 61.32 69.84 87 132 31.199 75.238 60.719 146.28 109.08 146.28 48.359 0 77.879-71.039 109.08-146.28 25.559-61.68 54.48-132 86.879-132 32.398 0 61.32 69.84 86.879 132 31.199 75.238 60.719 146.28 109.08 146.28s77.879-71.039 109.08-146.28c25.559-61.559 54.48-132 86.879-132 32.398 0 61.32 69.84 86.879 132 31.207 74.641 61.086 145.68 109.09 145.68v-24c-32.398 0-61.32-69.84-86.879-131.4z"/>
 </g>
</svg>
