<?xml version="1.0" encoding="UTF-8"?>
<svg width="1200pt" height="1200pt" version="1.1" viewBox="0 0 1200 1200" xmlns="http://www.w3.org/2000/svg">
 <g fill="#fff">
  <path d="m585.6 739.2c0-33.602-26.398-60-60-60-19.199 0-36 8.3984-48 24-10.801-2.3984-21.602-4.8008-33.602-4.8008-69.602 0-127.2 56.398-127.2 127.2 0 69.602 56.398 127.2 127.2 127.2 69.602 0 127.2-56.398 127.2-127.2 0-14.398-2.3984-27.602-7.1992-40.801 13.199-11.996 21.602-27.598 21.602-45.598zm-60-36c20.398 0 36 15.602 36 36 0 13.199-6 24-18 31.199-6 3.6016-12 4.8008-18 4.8008-20.398 0-36-15.602-36-36 0-6 1.1992-12 3.6016-16.801 7.1953-12 19.195-19.199 32.398-19.199z"/>
  <path d="m1016.4 160.8h-507.6c-42 0-75.602 33.602-75.602 75.602v375.6c-146.4 5.9961-268.8 130.8-314.4 184.8-14.398 16.801-14.398 39.602 0 56.398 48 56.398 175.2 186 326.4 186s278.4-130.8 326.4-186c14.398-16.801 14.398-39.602 0-56.398-39.598-46.801-134.4-144-253.2-175.2l12-18c8.3984-13.199 24-21.602 39.602-21.602h445.2c42 0 75.602-33.602 75.602-75.602v-270c1.1992-42-32.402-75.598-74.402-75.598zm-571.2 854.4c-104.4 0-190.8-85.199-190.8-190.8 0-104.4 85.199-190.8 190.8-190.8 105.6 0.003906 189.6 86.402 189.6 192 0 104.4-85.199 189.6-189.6 189.6zm-308.4-177.6c-6-7.1992-6-18 0-25.199 26.398-31.199 79.199-86.398 146.4-127.2-32.398 37.199-52.801 86.398-52.801 140.4s20.398 102 52.801 140.4c-67.199-40.801-120-97.199-146.4-128.4zm615.6-25.203c6 7.1992 6 18 0 25.199-26.398 31.199-79.199 86.398-146.4 127.2 32.398-37.199 52.801-86.398 52.801-140.4s-20.398-102-52.801-140.4c68.398 42 120 97.199 146.4 128.4zm315.6-307.2c0 28.801-22.801 51.602-51.602 51.602h-445.2c-24 0-46.801 12-60 32.398l-16.801 26.398h-2.3984c-4.8008-1.1992-9.6016-1.1992-14.398-2.3984h-2.3984c-6-1.1992-10.801-1.1992-16.801-1.1992h-1.1992l-0.003906-375.6c0-28.801 22.801-51.602 51.602-51.602h507.6c28.801 0 51.602 22.801 51.602 51.602z"/>
  <path d="m565.2 232.8c0-7.1992-4.8008-12-12-12h-30c-16.801 0-30 13.199-30 30v76.801c0 7.1992 4.8008 12 12 12s12-4.8008 12-12v-76.801c0-3.6016 2.3984-6 6-6h30c6 0 12-6 12-12z"/>
  <path d="m604.8 244.8h8.3984c7.1992 0 12-4.8008 12-12s-4.8008-12-12-12h-8.3984c-7.1992 0-12 4.8008-12 12s6 12 12 12z"/>
  <path d="m985.2 466.8h-21.602l0.003906-193.2c0-14.398-12-26.398-26.398-26.398h-51.602c-14.398 0-26.398 12-26.398 26.398v193.2h-46.801l-0.003906-142.8c0-14.398-12-26.398-26.398-26.398h-51.602c-14.398 0-25.199 12-25.199 26.398v142.8h-46.801v-105.6c0-14.398-12-25.199-26.398-25.199h-48c-14.398 0-26.398 12-26.398 25.199v105.6h-21.602c-7.1992 0-12 4.8008-12 12s4.8008 12 12 12h446.4c7.1992 0 12-4.8008 12-12-0.003906-7.1992-7.2031-12-13.203-12z"/>
 </g>
</svg>
